<?xml version="1.0" encoding="UTF-8" standalone="no"?>
<!-- Created with Inkscape (http://www.inkscape.org/) -->

<svg
   width="210mm"
   height="297mm"
   viewBox="0 0 210 297"
   version="1.1"
   id="svg1"
   inkscape:version="1.3.2 (091e20e, 2023-11-25, custom)"
   sodipodi:docname="Icon.svg"
   xmlns:inkscape="http://www.inkscape.org/namespaces/inkscape"
   xmlns:sodipodi="http://sodipodi.sourceforge.net/DTD/sodipodi-0.dtd"
   xmlns:xlink="http://www.w3.org/1999/xlink"
   xmlns="http://www.w3.org/2000/svg"
   xmlns:svg="http://www.w3.org/2000/svg">
  <sodipodi:namedview
     id="namedview1"
     pagecolor="#ffffff"
     bordercolor="#000000"
     borderopacity="0.25"
     inkscape:showpageshadow="2"
     inkscape:pageopacity="0.0"
     inkscape:pagecheckerboard="0"
     inkscape:deskcolor="#d1d1d1"
     inkscape:document-units="mm"
     inkscape:zoom="1.4142136"
     inkscape:cx="423.91052"
     inkscape:cy="481.18616"
     inkscape:window-width="3440"
     inkscape:window-height="1361"
     inkscape:window-x="2391"
     inkscape:window-y="-9"
     inkscape:window-maximized="1"
     inkscape:current-layer="layer2" />
  <defs
     id="defs1">
    <linearGradient
       id="linearGradient42"
       inkscape:collect="always">
      <stop
         style="stop-color:#b9986a;stop-opacity:1;"
         offset="0"
         id="stop42" />
      <stop
         style="stop-color:#866231;stop-opacity:1;"
         offset="1"
         id="stop43" />
    </linearGradient>
    <linearGradient
       id="swatch10"
       inkscape:swatch="solid">
      <stop
         style="stop-color:#000000;stop-opacity:1;"
         offset="0"
         id="stop10" />
    </linearGradient>
    <linearGradient
       id="swatch9"
       inkscape:swatch="solid">
      <stop
         style="stop-color:#000000;stop-opacity:0.50148368;"
         offset="0"
         id="stop9" />
    </linearGradient>
    <linearGradient
       id="swatch3"
       inkscape:swatch="solid">
      <stop
         style="stop-color:#1f17e5;stop-opacity:1;"
         offset="0"
         id="stop3" />
    </linearGradient>
    <linearGradient
       inkscape:collect="always"
       xlink:href="#linearGradient42"
       id="linearGradient43"
       x1="48.587005"
       y1="112.78743"
       x2="144.36447"
       y2="184.06822"
       gradientUnits="userSpaceOnUse" />
  </defs>
  <g
     inkscape:label="Palette"
     inkscape:groupmode="layer"
     id="layer1">
    <path
       d="M 168.56646,75.323051 C 157.2902,54.355317 135.14965,40.098282 109.67444,40.098328 56.765704,41.379952 83.321476,71.013888 75.858419,82.020833 69.193168,91.851126 48.154257,78.069186 42.844413,106.92784 c -1.683816,10.11919 2.260971,19.70613 6.286438,28.30215 11.275081,20.97156 33.417566,35.232 58.895629,35.23196 36.90919,7e-5 66.8301,-29.92084 66.83003,-66.83003 -6e-5,-10.121779 -2.26258,-19.711187 -6.29005,-28.308869 z"
       style="fill:#b9996b;fill-opacity:1;stroke:#000000;stroke-width:1.565"
       id="path37"
       inkscape:label="Palette"
       sodipodi:nodetypes="ccscccsc" />
    <path
       d="m 110.91313,56.953113 a 9.4283075,9.1536636 0 0 0 -7.35253,-3.427698 9.4283075,9.1536636 0 0 0 -9.428361,9.153446 9.4283075,9.1536636 0 0 0 0.961698,3.997689 9.4283075,9.1536636 0 0 0 7.347873,3.447852 9.4283075,9.1536636 0 0 0 9.42836,-9.153447 9.4283075,9.1536636 0 0 0 -0.95704,-4.017842 z"
       style="fill:#ffffff;stroke:#000000;stroke-width:1.20105;fill-opacity:1"
       id="path39"
       inkscape:label="Thumb Hole" />
    <path
       id="path40"
       style="fill:url(#linearGradient43);fill-opacity:1;stroke:#000000;stroke-width:1.20105"
       inkscape:label="Shadow"
       d="m 102.44181,51.816992 c -5.207254,-3.1e-5 -9.428536,4.098395 -9.428366,9.153963 0.0071,2.075883 0.740681,4.087788 2.080493,5.705595 -0.628184,-1.244686 -0.957019,-2.611622 -0.961698,-3.997689 1.24e-4,-5.055364 4.221317,-9.153475 9.428361,-9.153446 2.85941,9.94e-4 5.56386,1.261788 7.35253,3.427698 -1.58117,-3.142744 -4.86875,-5.13599 -8.47132,-5.136121 z m 66.12465,23.506059 c 4.02747,8.597682 6.28999,18.18709 6.29005,28.308869 7e-5,36.90919 -29.92084,66.8301 -66.83003,66.83003 -25.478063,4e-5 -47.620548,-14.2604 -58.895629,-35.23196 10.657208,22.7575 33.192311,37.59249 59.982319,37.59244 36.9092,7e-5 65.70757,-29.35958 67.3913,-65.89459 -7e-5,-11.433786 -2.877,-22.194048 -7.93801,-31.604789 z"
       sodipodi:nodetypes="cccccccccccccc" />
  </g>
  <g
     inkscape:groupmode="layer"
     id="layer2"
     inkscape:label="Paint">
    <path
       id="path43"
       style="fill:#b96bb5;fill-opacity:1;stroke:#000000;stroke-width:1.46493"
       inkscape:label="Current Month"
       d="m 122.97237,105.42446 c -1.7487,2.64421 -0.7358,6.18383 -2.06042,8.90724 -1.15273,2.37002 -4.33897,3.70581 -4.69905,6.36238 -1.78142,13.1425 -10.58317,6.75201 -17.430087,6.75201 -3.871812,0 -5.476614,-5.44521 -10.775995,-2.30044 -9.089041,5.39364 -4.978982,-5.50415 -8.319214,-6.2009 -11.611634,-2.42209 -5.09435,-8.42382 -5.094349,-13.52029 10e-7,-4.48569 7.83422,1.25757 4.003169,-12.138201 -0.95615,-3.343306 8.032123,-3.249185 7.985242,-6.880982 -0.159879,-12.385507 7.751197,-3.002447 12.201147,-3.002447 2.872997,0 5.629007,0.455973 8.185477,1.292763 4.3009,1.407779 8.03705,3.893392 10.81536,7.098981 3.2495,3.749251 13.04644,1.748207 5.18872,13.629886 z"
       sodipodi:nodetypes="sssssssssssss" />
    <path
       id="path41"
       style="fill:#4d49b3;stroke:#000000;stroke-width:1.48342;fill-opacity:1"
       inkscape:label="1 Month Ago"
       d="m 158.23886,75.736656 c 2.62521,6.88562 -5.97383,13.34292 -13.34292,13.34292 -7.3691,6e-6 -13.34293,-5.973825 -13.34293,-13.34292 0,-7.369095 0.68217,-15.327295 8.05126,-15.327295 4.18012,0 7.61918,4.856854 10.33403,8.260539 2.41438,3.026979 7.04108,3.76329 8.30056,7.066756 z"
       sodipodi:nodetypes="ssssss" />
    <path
       id="path41-7"
       style="fill:#b74545;stroke:#000000;stroke-width:1.48342;fill-opacity:1"
       inkscape:label="2 Month Ago"
       d="m 170.81874,110.5153 c 0,7.36909 -8.35508,12.68146 -15.72417,12.68146 -7.36909,0 -20.23483,-10.73426 -13.34292,-13.34292 2.38125,-0.90133 -3.414,-3.55607 1.18128,-5.49686 1.42857,-0.60336 0.0397,-4.28155 0.97756,-5.511521 1.25431,-1.644951 1.88196,-3.406718 5.30962,-4.495713 1.39697,-0.443827 10.30797,-4.088756 8.25571,2.822635 -1.33911,4.509729 14.836,-5.134336 7.6821,7.803069 -1.54968,2.8025 5.66082,2.55546 5.66082,5.53985 z"
       sodipodi:nodetypes="sssssssss" />
    <path
       id="path41-4"
       style="fill:#458bb7;stroke:#000000;stroke-width:1.48342;fill-opacity:1"
       inkscape:label="3 Months Ago"
       d="m 148.80633,141.02237 c 0,4.28857 -8.27848,1.50033 -7.41626,5.38622 1.44576,6.51589 -2.84614,7.9567 -5.92666,7.9567 -3.81508,0 -10.16661,6.60093 -9.68801,-4.16813 0.14625,-3.29075 -3.65491,-5.62078 -3.65491,-9.17479 0,-7.36909 5.97383,-13.34292 13.34292,-13.34292 4.56568,0 5.20545,8.55123 9.14923,6.98119 6.901,-2.74732 4.19369,3.55832 4.19369,6.36173 z"
       sodipodi:nodetypes="ssssssss" />
    <path
       id="path41-1"
       style="fill:#45b791;stroke:#000000;stroke-width:1.48342;fill-opacity:1"
       inkscape:label="4 Months Ago"
       d="m 114.82364,150.84114 c 0,7.36909 -5.97383,13.34292 -13.34292,13.34292 -3.826465,0 -0.39144,-5.78169 -3.624332,-4.32342 -3.513802,1.58498 -3.293137,-4.64077 -8.281923,-0.79649 -2.329233,1.79487 -3.386164,-7.94306 -1.436665,-8.22301 2.645833,-0.37994 -4.497542,-6.56713 3.165414,-8.62898 3.652519,-0.98277 6.098774,-4.71394 10.177506,-4.71394 7.36909,0 13.34292,5.97383 13.34292,13.34292 z"
       sodipodi:nodetypes="ssssssss" />
  </g>
</svg>
