<?xml version="1.0" encoding="UTF-8" standalone="no"?>
<!-- Created with Inkscape (http://www.inkscape.org/) -->

<svg
   width="210mm"
   height="297mm"
   viewBox="0 0 210 297"
   version="1.1"
   id="svg1"
   inkscape:version="1.3.2 (091e20e, 2023-11-25, custom)"
   sodipodi:docname="Icon.svg"
   xmlns:inkscape="http://www.inkscape.org/namespaces/inkscape"
   xmlns:sodipodi="http://sodipodi.sourceforge.net/DTD/sodipodi-0.dtd"
   xmlns="http://www.w3.org/2000/svg"
   xmlns:svg="http://www.w3.org/2000/svg">
  <sodipodi:namedview
     id="namedview1"
     pagecolor="#ffffff"
     bordercolor="#000000"
     borderopacity="0.25"
     inkscape:showpageshadow="2"
     inkscape:pageopacity="0.0"
     inkscape:pagecheckerboard="0"
     inkscape:deskcolor="#d1d1d1"
     inkscape:document-units="mm"
     inkscape:zoom="1.4450552"
     inkscape:cx="353.96571"
     inkscape:cy="367.11399"
     inkscape:window-width="3440"
     inkscape:window-height="1361"
     inkscape:window-x="2391"
     inkscape:window-y="-9"
     inkscape:window-maximized="1"
     inkscape:current-layer="layer1" />
  <defs
     id="defs1">
    <linearGradient
       id="swatch10"
       inkscape:swatch="solid">
      <stop
         style="stop-color:#000000;stop-opacity:1;"
         offset="0"
         id="stop10" />
    </linearGradient>
    <linearGradient
       id="swatch9"
       inkscape:swatch="solid">
      <stop
         style="stop-color:#000000;stop-opacity:0.50148368;"
         offset="0"
         id="stop9" />
    </linearGradient>
    <linearGradient
       id="swatch3"
       inkscape:swatch="solid">
      <stop
         style="stop-color:#1f17e5;stop-opacity:1;"
         offset="0"
         id="stop3" />
    </linearGradient>
  </defs>
  <g
     inkscape:label="Layer 1"
     inkscape:groupmode="layer"
     id="layer1">
    <path
       d="m 102.44181,51.816992 a 9.4283075,9.1536636 0 0 0 -9.428366,9.153963 9.4283075,9.1536636 0 0 0 2.080493,5.705595 9.4283075,9.1536636 0 0 1 -0.961698,-3.997689 9.4283075,9.1536636 0 0 1 9.428361,-9.153446 9.4283075,9.1536636 0 0 1 7.35253,3.427698 9.4283075,9.1536636 0 0 0 -8.47132,-5.136121 z"
       style="fill:none;stroke:#000000;stroke-width:1.20105"
       id="path40" />
    <path
       d="m 168.56646,75.323051 c 4.02747,8.597682 6.28999,18.18709 6.29005,28.308869 7e-5,36.90919 -29.92084,66.8301 -66.83003,66.83003 -25.478063,4e-5 -47.620548,-14.2604 -58.895629,-35.23196 10.657208,22.7575 33.753577,38.52793 60.543589,38.52788 36.9092,7e-5 66.8301,-29.92084 66.83003,-66.83003 -7e-5,-11.433786 -2.877,-22.194048 -7.93801,-31.604789 z"
       style="fill:none;stroke:#000000;stroke-width:1.565"
       id="path38" />
    <path
       d="M 168.56646,75.323051 C 157.2902,54.355317 135.14965,40.098282 109.67444,40.098328 56.765704,41.379952 83.321476,71.013888 75.858419,82.020833 69.193168,91.851126 48.154257,78.069186 42.844413,106.92784 c -1.8e-5,10.11919 2.260971,19.70613 6.286438,28.30215 11.275081,20.97156 33.417566,35.232 58.895629,35.23196 36.90919,7e-5 66.8301,-29.92084 66.83003,-66.83003 -6e-5,-10.121779 -2.26258,-19.711187 -6.29005,-28.308869 z"
       style="fill:none;stroke:#000000;stroke-width:1.565"
       id="path37" />
    <path
       d="m 110.91313,56.953113 a 9.4283075,9.1536636 0 0 0 -7.35253,-3.427698 9.4283075,9.1536636 0 0 0 -9.428361,9.153446 9.4283075,9.1536636 0 0 0 0.961698,3.997689 9.4283075,9.1536636 0 0 0 7.347873,3.447852 9.4283075,9.1536636 0 0 0 9.42836,-9.153447 9.4283075,9.1536636 0 0 0 -0.95704,-4.017842 z"
       style="fill:none;stroke:#000000;stroke-width:1.20105"
       id="path39" />
  </g>
</svg>
